<svg width="20" height="20" viewBox="0 0 20 20" fill="none" xmlns="http://www.w3.org/2000/svg">
<path d="M4.16667 8.3335C3.25 8.3335 2.5 9.0835 2.5 10.0002C2.5 10.9168 3.25 11.6668 4.16667 11.6668C5.08333 11.6668 5.83333 10.9168 5.83333 10.0002C5.83333 9.0835 5.08333 8.3335 4.16667 8.3335Z" fill="#222222"/>
<path d="M15.8346 8.33301C14.918 8.33301 14.168 9.08301 14.168 9.99967C14.168 10.9163 14.918 11.6663 15.8346 11.6663C16.7513 11.6663 17.5013 10.9163 17.5013 9.99967C17.5013 9.08301 16.7513 8.33301 15.8346 8.33301Z" fill="#222222"/>
<path d="M9.9987 8.33301C9.08203 8.33301 8.33203 9.08301 8.33203 9.99967C8.33203 10.9163 9.08203 11.6663 9.9987 11.6663C10.9154 11.6663 11.6654 10.9163 11.6654 9.99967C11.6654 9.08301 10.9154 8.33301 9.9987 8.33301Z" fill="#222222"/>
</svg>
