<svg width="16" height="16" viewBox="0 0 16 16" fill="none" xmlns="http://www.w3.org/2000/svg">
<path d="M5.33301 1.33325V3.33325" stroke="#292D32" stroke-miterlimit="10" stroke-linecap="round" stroke-linejoin="round"/>
<path d="M10.667 1.33325V3.33325" stroke="#292D32" stroke-miterlimit="10" stroke-linecap="round" stroke-linejoin="round"/>
<path d="M2.33301 6.06006H13.6663" stroke="#292D32" stroke-miterlimit="10" stroke-linecap="round" stroke-linejoin="round"/>
<path d="M14.6663 12.6667C14.6663 13.1667 14.5263 13.64 14.2797 14.04C13.8197 14.8133 12.973 15.3333 11.9997 15.3333C11.3263 15.3333 10.713 15.0867 10.2463 14.6667C10.0397 14.4933 9.85968 14.28 9.71968 14.04C9.47301 13.64 9.33301 13.1667 9.33301 12.6667C9.33301 11.1933 10.5263 10 11.9997 10C12.7997 10 13.513 10.3533 13.9997 10.9067C14.413 11.38 14.6663 11.9933 14.6663 12.6667Z" stroke="#292D32" stroke-miterlimit="10" stroke-linecap="round" stroke-linejoin="round"/>
<path d="M10.96 12.6668L11.62 13.3268L13.04 12.0134" stroke="#292D32" stroke-linecap="round" stroke-linejoin="round"/>
<path d="M14 5.66659V10.9066C13.5133 10.3532 12.8 9.99992 12 9.99992C10.5267 9.99992 9.33333 11.1933 9.33333 12.6666C9.33333 13.1666 9.47333 13.6399 9.72 14.0399C9.86 14.2799 10.04 14.4933 10.2467 14.6666H5.33333C3 14.6666 2 13.3333 2 11.3333V5.66659C2 3.66659 3 2.33325 5.33333 2.33325H10.6667C13 2.33325 14 3.66659 14 5.66659Z" stroke="#292D32" stroke-miterlimit="10" stroke-linecap="round" stroke-linejoin="round"/>
<path d="M7.99666 9.13338H8.00265" stroke="#292D32" stroke-linecap="round" stroke-linejoin="round"/>
<path d="M5.52987 9.13338H5.53585" stroke="#292D32" stroke-linecap="round" stroke-linejoin="round"/>
<path d="M5.52987 11.1334H5.53585" stroke="#292D32" stroke-linecap="round" stroke-linejoin="round"/>
</svg>
