<svg width="24" height="24" viewBox="0 0 24 24" fill="none" xmlns="http://www.w3.org/2000/svg">
<mask id="mask0_1866_17669" style="mask-type:luminance" maskUnits="userSpaceOnUse" x="0" y="0" width="24" height="24">
<path d="M0 0H24V24H0V0Z" fill="white"/>
</mask>
<g mask="url(#mask0_1866_17669)">
<mask id="mask1_1866_17669" style="mask-type:luminance" maskUnits="userSpaceOnUse" x="0" y="0" width="24" height="24">
<path d="M0 0H24V24H0V0Z" fill="white"/>
</mask>
<g mask="url(#mask1_1866_17669)">
<path d="M18.6587 7.44043H4.46094L5.80071 19.5185C5.95067 20.8983 7.13051 21.9381 8.53028 21.9381H15.3492C16.7489 21.9381 17.9288 20.8983 18.0787 19.5185L19.4185 7.44043H18.6587ZM12.9396 11.9397C12.9396 11.3898 13.3896 10.9399 13.9395 10.9399C14.4894 10.9399 14.9393 11.3898 14.9393 11.9397V17.9387C14.9393 18.4886 14.4894 18.9386 13.9395 18.9386C13.3895 18.9386 12.9396 18.4886 12.9396 17.9387V11.9397ZM8.94025 11.9397C8.94025 11.3898 9.3902 10.9399 9.94009 10.9399C10.49 10.9399 10.9399 11.3898 10.9399 11.9397V17.9387C10.9399 18.4886 10.49 18.9386 9.94009 18.9386C9.39015 18.9386 8.94025 18.4886 8.94025 17.9387V11.9397Z" fill="#797979"/>
<path d="M19.8355 3.9256L12.837 3.99889L12.8266 2.9991C12.8208 2.4472 12.3692 2.00401 11.8163 2.00982C11.2634 2.01558 10.8212 2.46817 10.827 3.02003L10.8374 4.01987L3.83895 4.09312C3.28608 4.09888 2.84386 4.55152 2.84967 5.10337C2.85543 5.65528 3.30701 6.09846 3.85987 6.09265L19.8565 5.92513C20.4093 5.91937 20.8515 5.46678 20.8457 4.91493C20.84 4.36302 20.3884 3.91979 19.8355 3.9256Z" fill="#797979"/>
</g>
</g>
</svg>
