<svg width="20" height="20" viewBox="0 0 20 20" fill="none" xmlns="http://www.w3.org/2000/svg">
<g id="vuesax/linear/money-add">
<path id="Vector" d="M9.9974 12.0833C11.148 12.0833 12.0807 11.1506 12.0807 9.99996C12.0807 8.84937 11.148 7.91663 9.9974 7.91663C8.8468 7.91663 7.91406 8.84937 7.91406 9.99996C7.91406 11.1506 8.8468 12.0833 9.9974 12.0833Z" stroke="black" stroke-width="1.5" stroke-miterlimit="10" stroke-linecap="round" stroke-linejoin="round"/>
<path id="Vector_2" d="M15.4141 7.91663V12.0833" stroke="black" stroke-width="1.5" stroke-miterlimit="10" stroke-linecap="round" stroke-linejoin="round"/>
<g id="Group">
<path id="Vector_3" d="M7.4987 15C7.4987 15.625 7.32371 16.2166 7.01538 16.7166C6.44038 17.6833 5.38203 18.3333 4.16536 18.3333C2.9487 18.3333 1.89035 17.6833 1.31535 16.7166C1.00702 16.2166 0.832031 15.625 0.832031 15C0.832031 13.1583 2.3237 11.6666 4.16536 11.6666C6.00703 11.6666 7.4987 13.1583 7.4987 15Z" stroke="black" stroke-width="1.5" stroke-miterlimit="10" stroke-linecap="round" stroke-linejoin="round"/>
<g id="Group_2">
<path id="Vector_4" d="M5.4091 14.9829H2.92578" stroke="black" stroke-width="1.5" stroke-miterlimit="10" stroke-linecap="round" stroke-linejoin="round"/>
<path id="Vector_5" d="M4.16602 13.7662V16.2579" stroke="black" stroke-width="1.5" stroke-miterlimit="10" stroke-linecap="round" stroke-linejoin="round"/>
</g>
</g>
<path id="Vector_6" d="M1.66406 12.75V7.50004C1.66406 4.58337 3.33073 3.33337 5.83073 3.33337H14.1641C16.6641 3.33337 18.3307 4.58337 18.3307 7.50004V12.5C18.3307 15.4167 16.6641 16.6667 14.1641 16.6667H7.08073" stroke="black" stroke-width="1.5" stroke-miterlimit="10" stroke-linecap="round" stroke-linejoin="round"/>
</g>
</svg>
