<svg width="18" height="17" viewBox="0 0 18 17" fill="none" xmlns="http://www.w3.org/2000/svg">
<path d="M8.99935 0.166504C4.40768 0.166504 0.666016 3.90817 0.666016 8.49984C0.666016 13.0915 4.40768 16.8332 8.99935 16.8332C13.591 16.8332 17.3327 13.0915 17.3327 8.49984C17.3327 3.90817 13.591 0.166504 8.99935 0.166504ZM12.9827 6.58317L8.25768 11.3082C8.14102 11.4248 7.98268 11.4915 7.81602 11.4915C7.64935 11.4915 7.49102 11.4248 7.37435 11.3082L5.01602 8.94984C4.77435 8.70817 4.77435 8.30817 5.01602 8.0665C5.25768 7.82484 5.65768 7.82484 5.89935 8.0665L7.81602 9.98317L12.0993 5.69984C12.341 5.45817 12.741 5.45817 12.9827 5.69984C13.2243 5.9415 13.2243 6.33317 12.9827 6.58317Z" fill="#009618"/>
</svg>
