<svg width="20" height="20" viewBox="0 0 20 20" fill="none" xmlns="http://www.w3.org/2000/svg">
<g id="vuesax/linear/trash">
<g id="trash">
<path id="Vector" d="M17.498 4.98332C14.723 4.70832 11.9314 4.56665 9.14805 4.56665C7.49805 4.56665 5.84805 4.64998 4.19805 4.81665L2.49805 4.98332" stroke="#FB3834" stroke-width="1.5" stroke-linecap="round" stroke-linejoin="round"/>
<path id="Vector_2" d="M7.08203 4.14169L7.26536 3.05002C7.3987 2.25835 7.4987 1.66669 8.90703 1.66669H11.0904C12.4987 1.66669 12.607 2.29169 12.732 3.05835L12.9154 4.14169" stroke="#FB3834" stroke-width="1.5" stroke-linecap="round" stroke-linejoin="round"/>
<path id="Vector_3" d="M15.7057 7.61664L15.1641 16.0083C15.0724 17.3166 14.9974 18.3333 12.6724 18.3333H7.3224C4.9974 18.3333 4.9224 17.3166 4.83073 16.0083L4.28906 7.61664" stroke="#FB3834" stroke-width="1.5" stroke-linecap="round" stroke-linejoin="round"/>
<path id="Vector_4" d="M8.60547 13.75H11.3805" stroke="#FB3834" stroke-width="1.5" stroke-linecap="round" stroke-linejoin="round"/>
<path id="Vector_5" d="M7.91406 10.4167H12.0807" stroke="#FB3834" stroke-width="1.5" stroke-linecap="round" stroke-linejoin="round"/>
</g>
</g>
</svg>
