<svg width="231" height="34" viewBox="0 0 231 34" fill="none" xmlns="http://www.w3.org/2000/svg">
<path d="M24.4735 26.7065C23.2953 26.0491 22.5188 25.0966 22.318 23.7416C22.2912 23.594 22.2109 23.5001 22.0904 23.4331C20.9792 22.7891 19.8814 22.1317 18.7702 21.4878C18.6363 21.6756 18.6898 21.8366 18.6898 21.9976C18.6898 23.594 18.6898 25.1771 18.6764 26.7736C18.6764 27.2968 18.73 27.7932 18.8639 28.303C19.3324 29.9665 18.7166 31.6569 17.3376 32.596C15.972 33.5351 14.004 33.4949 12.6652 32.5155C11.2594 31.4825 10.7239 29.8324 11.2594 28.142C11.3532 27.8468 11.3933 27.5651 11.3933 27.2565C11.3933 25.7003 11.4067 24.1441 11.4067 22.5745C11.4067 22.2391 11.5004 22.0378 11.795 21.8366C12.6116 21.2865 13.4819 20.817 14.245 20.1865C14.5797 19.9181 14.9679 19.7571 15.383 19.6364C17.1502 19.1669 18.1543 17.5838 17.7125 15.9605C17.4046 14.8336 16.6013 14.2299 15.4901 13.975C15.557 13.7737 15.7444 13.7066 15.8783 13.5993C17.8999 12.1907 19.9751 10.8491 22.077 9.56118C22.1439 9.52094 22.2243 9.4941 22.3046 9.45386C22.1439 10.1515 22.318 10.8357 22.4385 11.5065C21.7691 11.9089 21.0997 12.3248 20.4169 12.7005C19.801 13.0359 19.2253 13.4652 18.6229 13.8676C18.9576 14.3506 19.2789 14.8202 19.4262 15.3836C19.4797 15.5849 19.5868 15.6519 19.7743 15.6519C22.0636 15.6519 24.353 15.6519 26.6423 15.6519C26.8298 15.6519 26.9503 15.5714 27.0975 15.4775C27.6866 15.1153 28.2891 15.1958 28.7443 15.6653C29.1459 16.0946 29.2129 16.752 28.8915 17.235C28.5568 17.7448 27.8874 17.9729 27.2984 17.6911C26.8833 17.4899 26.4683 17.4631 26.0399 17.4631C24.0049 17.4631 21.9565 17.4631 19.9215 17.4496C19.6136 17.4496 19.4663 17.5033 19.4262 17.8387C19.3726 18.268 19.2253 18.6973 18.9844 19.0595C18.8371 19.2742 18.904 19.3547 19.0915 19.4754C20.1357 20.0791 21.1666 20.6962 22.1975 21.3268C22.4786 21.5012 22.5858 21.4744 22.7464 21.1792C24.2057 18.6571 27.6866 18.4424 29.4137 20.7365C30.7123 22.4537 30.15 24.7612 28.9585 25.9418C28.0213 26.8675 26.7896 27.0016 26.5352 27.0285C25.5713 27.1358 24.8216 26.8541 24.4735 26.7065ZM13.2141 25.9955C14.4726 25.3649 15.6775 25.432 16.8958 25.915C16.8958 24.8015 16.9226 23.755 16.8824 22.722C16.8557 21.9976 16.8824 21.3536 17.6456 21.0182C17.6723 21.0048 17.6857 20.9646 17.6991 20.9377C17.4447 20.6828 17.1904 20.6292 16.8824 20.8841C16.695 21.0316 16.454 21.139 16.213 21.2195C15.3294 21.5549 14.4458 21.528 13.5488 21.2731C13.3881 21.2329 13.2007 21.0853 13.2007 21.4475C13.2275 22.9367 13.2141 24.4258 13.2141 25.9955Z" fill="white"/>
<path d="M16.869 7.6559C16.8958 7.54857 16.8958 7.42783 17.0297 7.36075C17.6991 7.02536 18.1275 6.42165 18.6229 5.89844C18.6496 5.97893 18.663 6.05943 18.6898 6.15334C18.6898 6.44848 18.6898 6.74363 18.6898 7.05219L18.663 7.06561L18.6898 7.07902C18.6898 7.17293 18.6898 7.26684 18.6898 7.36075L18.663 7.37417L18.6898 7.38758C18.6898 8.46084 18.6898 9.5341 18.7032 10.6074C18.7032 10.8891 18.6362 11.0769 18.3953 11.2245C16.9092 12.1904 15.4499 13.1966 13.9504 14.1357C12.4911 15.0614 12.0627 16.0139 12.4376 17.6909C12.4643 17.7982 12.5447 17.9189 12.4242 18.0129C12.0225 18.2812 11.6209 18.5629 11.1925 18.791C10.9515 18.9117 10.9247 18.6166 10.8578 18.469C10.0813 16.7115 10.6703 14.5516 12.2367 13.2771C13.522 12.2307 14.9144 11.6404 16.6013 12.1502C16.9627 12.2575 16.8824 11.9758 16.8824 11.8014C16.8824 10.4061 16.8824 9.02431 16.869 7.6559Z" fill="white"/>
<path d="M7.72476 11.5597C7.68459 10.8487 7.95235 10.1779 7.88541 9.46684C9.0234 10.151 10.1614 10.8353 11.4199 11.5865C11.4199 9.54734 11.4199 7.62889 11.4199 5.69702C11.8483 6.47513 12.4909 7.0386 13.2273 7.50815C13.2273 8.84972 13.2139 10.1779 13.2273 11.5195C13.2273 11.8012 13.1469 11.9756 12.9059 12.1232C12.3303 12.4988 11.768 12.8879 11.219 13.2903C11.0584 13.4111 10.9379 13.4513 10.7371 13.3306C9.73297 12.7403 8.72886 12.15 7.72476 11.5597Z" fill="white"/>
<path d="M6.587 17.4897C5.77033 17.4897 4.95365 17.4897 4.13698 17.4897C3.69517 17.4897 3.28014 17.4629 2.85172 17.7043C2.34298 17.9995 1.67357 17.7446 1.33887 17.275C1.00417 16.8055 1.01756 16.1884 1.39242 15.7456C1.76729 15.2895 2.45008 15.1151 2.97222 15.4371C3.32031 15.6517 3.65501 15.6651 4.01649 15.6651C5.91759 15.6651 7.83209 15.6651 9.7332 15.6517C9.96079 15.6517 10.1214 15.5981 10.0277 15.9603C9.9474 16.3359 9.92063 16.7652 10.0277 17.1543C10.1081 17.4494 9.98757 17.4897 9.7332 17.4897C8.68893 17.4763 7.63127 17.4897 6.587 17.4897Z" fill="white"/>
<path d="M7.89946 23.5266C7.9664 22.8424 7.75219 22.1851 7.68525 21.5143C9.29182 20.4544 11.0189 19.6092 12.6388 18.5896C12.7861 18.4957 12.9066 18.4018 13.0539 18.5896C13.3618 18.9787 13.8036 19.1933 14.2722 19.3812C14.1919 19.6361 13.9107 19.6495 13.7768 19.8373C12.0765 20.924 10.3763 22.0107 8.67597 23.0839C8.43498 23.151 8.23416 23.2851 8.06012 23.4596C8.00656 23.4864 7.95301 23.4998 7.89946 23.5266Z" fill="white"/>
<path d="M7.13571 5.38885C7.13571 4.6644 7.73817 4.08752 8.44774 4.08752C9.14392 4.10094 9.74639 4.73148 9.733 5.4291C9.71961 6.12672 9.13053 6.70359 8.44774 6.70359C7.72479 6.69018 7.13571 6.09989 7.13571 5.38885Z" fill="white"/>
<path d="M20.3635 5.37544C20.3635 4.6644 20.9258 4.08752 21.6353 4.08752C22.3449 4.08752 22.9474 4.69123 22.934 5.40227C22.934 6.09989 22.3449 6.70359 21.6621 6.70359C20.9793 6.70359 20.3635 6.08647 20.3635 5.37544Z" fill="white"/>
<path d="M18.6895 7.8971L18.6632 7.88391H18.6895V7.8971Z" fill="#22A7C9"/>
<path d="M21.6485 28.7187C20.9657 28.7053 20.3633 28.115 20.3499 27.4442C20.3499 26.7198 20.9389 26.1295 21.6485 26.1161C22.3447 26.1161 22.9472 26.7466 22.9338 27.4442C22.9204 28.1553 22.3447 28.7322 21.6485 28.7187Z" fill="white"/>
<path d="M8.43436 28.7187C7.75156 28.7053 7.1491 28.115 7.13571 27.4442C7.13571 26.7198 7.72479 26.1295 8.43436 26.1161C9.13053 26.1161 9.733 26.7466 9.71961 27.4442C9.70622 28.1553 9.13053 28.7322 8.43436 28.7187Z" fill="white"/>
<path d="M4.00313 14.0415C6.21394 14.0415 8.00616 12.2456 8.00616 10.0302C8.00616 7.81484 6.21394 6.01892 4.00313 6.01892C1.79231 6.01892 9.15527e-05 7.81484 9.15527e-05 10.0302C9.15527e-05 12.2456 1.79231 14.0415 4.00313 14.0415Z" fill="#FB3834"/>
<path d="M15.0481 8.50113C17.2589 8.50113 19.0511 6.70521 19.0511 4.48982C19.0511 2.27444 17.2589 0.478516 15.0481 0.478516C12.8373 0.478516 11.0451 2.27444 11.0451 4.48982C11.0451 6.70521 12.8373 8.50113 15.0481 8.50113Z" fill="#0086FF"/>
<path d="M26.2141 14.0415C28.4249 14.0415 30.2171 12.2456 30.2171 10.0302C30.2171 7.81484 28.4249 6.01892 26.2141 6.01892C24.0033 6.01892 22.211 7.81484 22.211 10.0302C22.211 12.2456 24.0033 14.0415 26.2141 14.0415Z" fill="#7F00FF"/>
<path d="M4.00313 27.1084C6.21394 27.1084 8.00616 25.3125 8.00616 23.0971C8.00616 20.8817 6.21394 19.0858 4.00313 19.0858C1.79231 19.0858 9.15527e-05 20.8817 9.15527e-05 23.0971C9.15527e-05 25.3125 1.79231 27.1084 4.00313 27.1084Z" fill="#7F00FF"/>
<path d="M15.0349 33.5216C17.2457 33.5216 19.0379 31.7257 19.0379 29.5103C19.0379 27.2949 17.2457 25.499 15.0349 25.499C12.8241 25.499 11.0318 27.2949 11.0318 29.5103C11.0318 31.7257 12.8241 33.5216 15.0349 33.5216Z" fill="#0086FF"/>
<path d="M26.2141 27.1084C28.4249 27.1084 30.2171 25.3125 30.2171 23.0971C30.2171 20.8817 28.4249 19.0858 26.2141 19.0858C24.0033 19.0858 22.211 20.8817 22.211 23.0971C22.211 25.3125 24.0033 27.1084 26.2141 27.1084Z" fill="#FB3834"/>
<path d="M231 13.0445H227.496V19.827C227.496 20.4111 227.628 20.835 227.891 21.0988C228.155 21.3437 228.541 21.485 229.05 21.5227C229.578 21.5415 230.228 21.5321 231 21.4944V24.2357C228.664 24.5183 226.987 24.3205 225.97 23.6422C224.952 22.9451 224.444 21.6734 224.444 19.827V13.0445H221.844V10.1054H224.444V7.05326L227.496 6.14893V10.1054H231V13.0445Z" fill="white"/>
<path d="M214.55 24.6029C212.421 24.6029 210.641 23.8869 209.209 22.4551C207.796 21.0232 207.09 19.2616 207.09 17.1703C207.09 15.0602 207.796 13.2986 209.209 11.8856C210.641 10.4537 212.421 9.73779 214.55 9.73779C215.926 9.73779 217.179 10.0675 218.309 10.7269C219.439 11.3863 220.287 12.2718 220.852 13.3834L218.224 14.9095C217.904 14.2312 217.414 13.7037 216.755 13.3269C216.114 12.9312 215.37 12.7334 214.522 12.7334C213.279 12.7334 212.233 13.1573 211.385 14.0051C210.556 14.853 210.142 15.908 210.142 17.1703C210.142 18.4326 210.556 19.4877 211.385 20.3355C212.233 21.1833 213.279 21.6072 214.522 21.6072C215.351 21.6072 216.095 21.4094 216.755 21.0138C217.433 20.6181 217.942 20.0906 218.281 19.4312L220.909 20.929C220.306 22.0594 219.439 22.9543 218.309 23.6137C217.179 24.2732 215.926 24.6029 214.55 24.6029Z" fill="white"/>
<path d="M193.917 18.4703C194.143 19.5442 194.661 20.3732 195.472 20.9572C196.282 21.5225 197.271 21.8051 198.439 21.8051C200.059 21.8051 201.274 21.221 202.085 20.0529L204.6 21.5225C203.206 23.5761 201.143 24.6029 198.411 24.6029C196.112 24.6029 194.256 23.9058 192.843 22.5116C191.43 21.0985 190.724 19.3181 190.724 17.1703C190.724 15.0602 191.421 13.2986 192.815 11.8856C194.209 10.4537 195.999 9.73779 198.185 9.73779C200.257 9.73779 201.953 10.4631 203.272 11.9139C204.609 13.3646 205.278 15.1261 205.278 17.1986C205.278 17.5189 205.24 17.9428 205.165 18.4703H193.917ZM193.889 15.9834H202.198C201.99 14.8341 201.51 13.9675 200.756 13.3834C200.022 12.7994 199.155 12.5073 198.156 12.5073C197.026 12.5073 196.084 12.8182 195.33 13.4399C194.577 14.0617 194.096 14.9095 193.889 15.9834Z" fill="white"/>
<path d="M182.803 9.73779C184.423 9.73779 185.732 10.2559 186.731 11.2921C187.729 12.3283 188.229 13.7508 188.229 15.5595V24.2355H185.177V15.8703C185.177 14.8153 184.894 14.0051 184.329 13.4399C183.764 12.8747 182.991 12.5921 182.011 12.5921C180.938 12.5921 180.071 12.9312 179.411 13.6095C178.752 14.2689 178.422 15.2863 178.422 16.6616V24.2355H175.37V10.1052H178.422V11.9139C179.346 10.4631 180.806 9.73779 182.803 9.73779Z" fill="white"/>
<path d="M166.658 9.73779C168.278 9.73779 169.587 10.2559 170.586 11.2921C171.584 12.3283 172.084 13.7508 172.084 15.5595V24.2355H169.032V15.8703C169.032 14.8153 168.749 14.0051 168.184 13.4399C167.619 12.8747 166.846 12.5921 165.866 12.5921C164.792 12.5921 163.926 12.9312 163.266 13.6095C162.607 14.2689 162.277 15.2863 162.277 16.6616V24.2355H159.225V10.1052H162.277V11.9139C163.2 10.4631 164.661 9.73779 166.658 9.73779Z" fill="white"/>
<path d="M149.005 24.6029C146.932 24.6029 145.171 23.8869 143.72 22.4551C142.269 21.0232 141.544 19.2616 141.544 17.1703C141.544 15.079 142.269 13.3175 143.72 11.8856C145.171 10.4537 146.932 9.73779 149.005 9.73779C151.096 9.73779 152.858 10.4537 154.289 11.8856C155.74 13.3175 156.466 15.079 156.466 17.1703C156.466 19.2616 155.74 21.0232 154.289 22.4551C152.858 23.8869 151.096 24.6029 149.005 24.6029ZM145.868 20.3638C146.716 21.2116 147.761 21.6355 149.005 21.6355C150.248 21.6355 151.294 21.2116 152.142 20.3638C152.989 19.516 153.413 18.4515 153.413 17.1703C153.413 15.8892 152.989 14.8247 152.142 13.9769C151.294 13.1291 150.248 12.7052 149.005 12.7052C147.761 12.7052 146.716 13.1291 145.868 13.9769C145.02 14.8247 144.596 15.8892 144.596 17.1703C144.596 18.4515 145.02 19.516 145.868 20.3638Z" fill="white"/>
<path d="M131.354 24.6029C128.377 24.6029 125.909 23.6232 123.95 21.6638C121.99 19.6855 121.01 17.2457 121.01 14.3443C121.01 11.4429 121.99 9.01246 123.95 7.05306C125.909 5.07481 128.377 4.08569 131.354 4.08569C133.144 4.08569 134.792 4.5096 136.299 5.35742C137.826 6.20524 139.012 7.3545 139.86 8.80521L137.034 10.4443C136.507 9.46463 135.734 8.69217 134.717 8.12696C133.718 7.54291 132.597 7.25088 131.354 7.25088C129.244 7.25088 127.529 7.91971 126.21 9.25738C124.91 10.595 124.26 12.2907 124.26 14.3443C124.26 16.3979 124.91 18.0935 126.21 19.4312C127.529 20.7689 129.244 21.4377 131.354 21.4377C132.597 21.4377 133.728 21.1551 134.745 20.5899C135.762 20.0058 136.526 19.2239 137.034 18.2442L139.86 19.8551C139.031 21.3058 137.854 22.4645 136.328 23.3312C134.82 24.179 133.163 24.6029 131.354 24.6029Z" fill="white"/>
<path d="M109.578 10.1051H112.828L107.402 24.6876C106.046 28.3426 103.747 30.0759 100.507 29.8875V27.0332C101.468 27.0897 102.24 26.8825 102.824 26.4115C103.408 25.9593 103.889 25.2434 104.265 24.2637L104.407 23.981L98.4154 10.1051H101.75L105.961 20.3637L109.578 10.1051Z" fill="white"/>
<path d="M97.0106 13.0445H93.5063V19.827C93.5063 20.4111 93.6382 20.835 93.9019 21.0988C94.1657 21.3437 94.5519 21.485 95.0606 21.5227C95.5881 21.5415 96.2381 21.5321 97.0106 21.4944V24.2357C94.6744 24.5183 92.9976 24.3205 91.9802 23.6422C90.9628 22.9451 90.4541 21.6734 90.4541 19.827V13.0445H87.8542V10.1054H90.4541V7.05326L93.5063 6.14893V10.1054H97.0106V13.0445Z" fill="white"/>
<path d="M85.4121 7.42044C85.0353 7.79725 84.5831 7.98565 84.0556 7.98565C83.528 7.98565 83.0665 7.79725 82.6708 7.42044C82.294 7.02479 82.1056 6.5632 82.1056 6.03567C82.1056 5.50814 82.294 5.05597 82.6708 4.67917C83.0476 4.28352 83.5092 4.08569 84.0556 4.08569C84.602 4.08569 85.0635 4.28352 85.4403 4.67917C85.8172 5.05597 86.0056 5.50814 86.0056 6.03567C86.0056 6.5632 85.8077 7.02479 85.4121 7.42044ZM82.5295 24.2355V10.1052H85.5817V24.2355H82.5295Z" fill="white"/>
<path d="M73.8172 9.73779C75.4375 9.73779 76.7469 10.2559 77.7455 11.2921C78.744 12.3283 79.2433 13.7508 79.2433 15.5595V24.2355H76.1911V15.8703C76.1911 14.8153 75.9085 14.0051 75.3433 13.4399C74.7781 12.8747 74.0056 12.5921 73.0259 12.5921C71.952 12.5921 71.0854 12.9312 70.426 13.6095C69.7666 14.2689 69.4368 15.2863 69.4368 16.6616V24.2355H66.3847V10.1052H69.4368V11.9139C70.36 10.4631 71.8202 9.73779 73.8172 9.73779Z" fill="white"/>
<path d="M60.7533 22.7374C59.3591 23.9808 57.5598 24.6026 55.3555 24.6026C53.1512 24.6026 51.3519 23.9808 49.9577 22.7374C48.5635 21.4751 47.8665 19.7888 47.8665 17.6787V4.45276H51.1164V17.4809C51.1164 18.6867 51.465 19.6475 52.1621 20.3635C52.878 21.0794 53.9425 21.4374 55.3555 21.4374C56.7685 21.4374 57.8236 21.0794 58.5207 20.3635C59.2366 19.6475 59.5946 18.6867 59.5946 17.4809V4.45276H62.8446V17.6787C62.8446 19.7888 62.1475 21.4751 60.7533 22.7374Z" fill="white"/>
</svg>
