<svg width="175" height="25" viewBox="0 0 175 25" fill="none" xmlns="http://www.w3.org/2000/svg">
<path d="M18.5162 19.8437C17.6248 19.3464 17.0373 18.6257 16.8854 17.6005C16.8651 17.4889 16.8044 17.4178 16.7132 17.3671C15.8725 16.8798 15.0419 16.3825 14.2011 15.8953C14.0998 16.0374 14.1404 16.1592 14.1404 16.281C14.1404 17.4889 14.1404 18.6866 14.1302 19.8945C14.1302 20.2903 14.1707 20.6659 14.272 21.0516C14.6266 22.3102 14.1606 23.5891 13.1173 24.2997C12.0841 25.0102 10.5951 24.9797 9.58217 24.2388C8.5186 23.4572 8.11343 22.2087 8.5186 20.9298C8.5895 20.7065 8.61989 20.4933 8.61989 20.2599C8.61989 19.0824 8.63002 17.905 8.63002 16.7174C8.63002 16.4637 8.70093 16.3114 8.92377 16.1592C9.54166 15.743 10.2001 15.3878 10.7774 14.9107C11.0307 14.7077 11.3244 14.5859 11.6384 14.4945C12.9755 14.1393 13.7352 12.9416 13.4009 11.7134C13.1679 10.8608 12.5602 10.404 11.7195 10.2112C11.7701 10.0589 11.9119 10.0081 12.0132 9.92695C13.5427 8.86117 15.1128 7.84615 16.7031 6.87173C16.7537 6.84128 16.8145 6.82098 16.8753 6.79053C16.7537 7.31834 16.8854 7.836 16.9766 8.34351C16.4701 8.64802 15.9636 8.96267 15.447 9.24688C14.9811 9.50064 14.5455 9.82544 14.0897 10.13C14.3429 10.4954 14.586 10.8506 14.6975 11.2769C14.738 11.4292 14.819 11.4799 14.9608 11.4799C16.6929 11.4799 18.425 11.4799 20.1572 11.4799C20.299 11.4799 20.3901 11.419 20.5015 11.348C20.9472 11.0739 21.4031 11.1348 21.7475 11.4901C22.0513 11.8149 22.102 12.3122 21.8589 12.6777C21.6056 13.0634 21.0992 13.2359 20.6535 13.0228C20.3395 12.8705 20.0255 12.8502 19.7013 12.8502C18.1617 12.8502 16.6119 12.8502 15.0722 12.8401C14.8393 12.8401 14.7279 12.8807 14.6975 13.1344C14.6569 13.4592 14.5455 13.784 14.3632 14.0581C14.2518 14.2205 14.3024 14.2814 14.4442 14.3727C15.2343 14.8295 16.0143 15.2964 16.7942 15.7735C17.0069 15.9054 17.088 15.8851 17.2095 15.6618C18.3136 13.7536 20.9472 13.5912 22.2539 15.3269C23.2365 16.6261 22.811 18.3719 21.9095 19.2652C21.2005 19.9655 20.2686 20.067 20.0761 20.0873C19.3468 20.1685 18.7796 19.9554 18.5162 19.8437ZM9.99747 19.3058C10.9496 18.8287 11.8613 18.8794 12.783 19.2449C12.783 18.4024 12.8033 17.6107 12.7729 16.8291C12.7526 16.281 12.7729 15.7938 13.3503 15.54C13.3705 15.5299 13.3807 15.4994 13.3908 15.4791C13.1983 15.2863 13.0059 15.2457 12.7729 15.4385C12.6311 15.5502 12.4488 15.6314 12.2664 15.6923C11.5979 15.946 10.9294 15.9257 10.2507 15.7329C10.1292 15.7024 9.98734 15.5908 9.98734 15.8648C10.0076 16.9915 9.99747 18.1182 9.99747 19.3058Z" fill="black"/>
<path d="M12.7629 5.43027C12.7832 5.34906 12.7832 5.25771 12.8844 5.20696C13.3909 4.9532 13.715 4.49644 14.0898 4.10059C14.1101 4.16149 14.1202 4.22239 14.1405 4.29344C14.1405 4.51674 14.1405 4.74005 14.1405 4.9735L14.1202 4.98366L14.1405 4.99381C14.1405 5.06486 14.1405 5.13591 14.1405 5.20696L14.1202 5.21711L14.1405 5.22726C14.1405 6.03928 14.1405 6.8513 14.1506 7.66331C14.1506 7.87647 14.1 8.01857 13.9176 8.13022C12.7933 8.86104 11.6892 9.62231 10.5547 10.3328C9.45061 11.0332 9.12648 11.7539 9.4101 13.0226C9.43036 13.1038 9.49113 13.1952 9.39997 13.2662C9.09609 13.4692 8.79221 13.6824 8.46807 13.8549C8.28575 13.9463 8.26549 13.723 8.21484 13.6113C7.62734 12.2817 8.07303 10.6475 9.25816 9.68321C10.2306 8.89149 11.284 8.44488 12.5603 8.83059C12.8338 8.91179 12.773 8.69864 12.773 8.56668C12.773 7.51106 12.773 6.46559 12.7629 5.43027Z" fill="black"/>
<path d="M5.84443 8.38413C5.81404 7.84617 6.01663 7.33866 5.96598 6.8007C6.82697 7.31836 7.68796 7.83602 8.64012 8.40443C8.64012 6.8616 8.64012 5.41012 8.64012 3.94849C8.96425 4.5372 9.45046 4.96351 10.0076 5.31877C10.0076 6.33379 9.99744 7.33866 10.0076 8.35368C10.0076 8.56684 9.94679 8.69879 9.76447 8.81044C9.32891 9.09465 8.90348 9.38901 8.48818 9.69351C8.36663 9.78486 8.27546 9.81532 8.12352 9.72396C7.36383 9.27735 6.60413 8.83074 5.84443 8.38413Z" fill="black"/>
<path d="M4.98355 12.8706C4.36566 12.8706 3.74778 12.8706 3.12989 12.8706C2.79562 12.8706 2.48162 12.8503 2.15748 13.033C1.77257 13.2563 1.2661 13.0634 1.01287 12.7082C0.759637 12.3529 0.769766 11.886 1.05339 11.5511C1.33701 11.206 1.8536 11.074 2.24864 11.3176C2.512 11.48 2.76524 11.4902 3.03873 11.4902C4.47709 11.4902 5.92557 11.4902 7.36393 11.48C7.53613 11.48 7.65768 11.4394 7.58678 11.7135C7.526 11.9977 7.50574 12.3225 7.58678 12.6168C7.64755 12.8401 7.55639 12.8706 7.36393 12.8706C6.57385 12.8604 5.77364 12.8706 4.98355 12.8706Z" fill="black"/>
<path d="M5.97646 17.4382C6.02711 16.9205 5.86504 16.4232 5.81439 15.9156C7.02991 15.1138 8.33659 14.4743 9.56223 13.7029C9.67365 13.6318 9.76481 13.5608 9.87624 13.7029C10.1092 13.9972 10.4435 14.1597 10.798 14.3018C10.7372 14.4946 10.5245 14.5048 10.4232 14.6469C9.1368 15.469 7.85038 16.2912 6.56396 17.1032C6.38163 17.154 6.22969 17.2555 6.09801 17.3874C6.05749 17.4077 6.01698 17.4179 5.97646 17.4382Z" fill="black"/>
<path d="M5.39886 3.71504C5.39886 3.16693 5.85468 2.73047 6.39154 2.73047C6.91826 2.74062 7.37408 3.21768 7.36395 3.74549C7.35382 4.2733 6.90813 4.70976 6.39154 4.70976C5.84455 4.69961 5.39886 4.253 5.39886 3.71504Z" fill="black"/>
<path d="M15.4068 3.70489C15.4068 3.16693 15.8322 2.73047 16.3691 2.73047C16.9059 2.73047 17.3618 3.18723 17.3516 3.72519C17.3516 4.253 16.9059 4.70976 16.3893 4.70976C15.8727 4.70976 15.4068 4.24285 15.4068 3.70489Z" fill="black"/>
<path d="M14.1396 5.61277L14.1202 5.60303H14.1396V5.61277Z" fill="#22A7C9"/>
<path d="M16.379 21.3661C15.8624 21.356 15.4066 20.9094 15.3964 20.4018C15.3964 19.8537 15.8421 19.4071 16.379 19.397C16.9057 19.397 17.3615 19.874 17.3514 20.4018C17.3412 20.9398 16.9057 21.3763 16.379 21.3661Z" fill="black"/>
<path d="M6.38141 21.3661C5.86481 21.356 5.40899 20.9094 5.39886 20.4018C5.39886 19.8537 5.84455 19.4071 6.38141 19.397C6.90813 19.397 7.36395 19.874 7.35382 20.4018C7.34369 20.9398 6.90813 21.3763 6.38141 21.3661Z" fill="black"/>
<path d="M3.02866 10.262C4.70134 10.262 6.05732 8.90319 6.05732 7.22706C6.05732 5.55092 4.70134 4.19214 3.02866 4.19214C1.35598 4.19214 0 5.55092 0 7.22706C0 8.90319 1.35598 10.262 3.02866 10.262Z" fill="#FB3834"/>
<path d="M11.3853 6.06983C13.058 6.06983 14.4139 4.71106 14.4139 3.03492C14.4139 1.35878 13.058 0 11.3853 0C9.7126 0 8.35663 1.35878 8.35663 3.03492C8.35663 4.71106 9.7126 6.06983 11.3853 6.06983Z" fill="#0086FF"/>
<path d="M19.8332 10.262C21.5058 10.262 22.8618 8.90319 22.8618 7.22706C22.8618 5.55092 21.5058 4.19214 19.8332 4.19214C18.1605 4.19214 16.8045 5.55092 16.8045 7.22706C16.8045 8.90319 18.1605 10.262 19.8332 10.262Z" fill="#7F00FF"/>
<path d="M3.02866 20.1482C4.70134 20.1482 6.05732 18.7894 6.05732 17.1133C6.05732 15.4371 4.70134 14.0784 3.02866 14.0784C1.35598 14.0784 0 15.4371 0 17.1133C0 18.7894 1.35598 20.1482 3.02866 20.1482Z" fill="#7F00FF"/>
<path d="M11.3752 25C13.0479 25 14.4039 23.6412 14.4039 21.9651C14.4039 20.289 13.0479 18.9302 11.3752 18.9302C9.70253 18.9302 8.34656 20.289 8.34656 21.9651C8.34656 23.6412 9.70253 25 11.3752 25Z" fill="#0086FF"/>
<path d="M19.8332 20.1482C21.5058 20.1482 22.8618 18.7894 22.8618 17.1133C22.8618 15.4371 21.5058 14.0784 19.8332 14.0784C18.1605 14.0784 16.8045 15.4371 16.8045 17.1133C16.8045 18.7894 18.1605 20.1482 19.8332 20.1482Z" fill="#FB3834"/>
<path d="M174.772 9.50693H172.121V14.6385C172.121 15.0804 172.221 15.4011 172.42 15.6007C172.62 15.786 172.912 15.8929 173.297 15.9214C173.696 15.9357 174.188 15.9286 174.772 15.9001V17.9741C173.005 18.1879 171.736 18.0382 170.966 17.5251C170.197 16.9976 169.812 16.0355 169.812 14.6385V9.50693H167.845V7.28323H169.812V4.97401L172.121 4.28979V7.28323H174.772V9.50693Z" fill="black"/>
<path d="M162.327 18.2521C160.716 18.2521 159.369 17.7105 158.286 16.6271C157.217 15.5438 156.682 14.211 156.682 12.6288C156.682 11.0323 157.217 9.69946 158.286 8.63038C159.369 7.54704 160.716 7.00537 162.327 7.00537C163.367 7.00537 164.315 7.25482 165.171 7.75373C166.026 8.25264 166.667 8.9226 167.095 9.76361L165.106 10.9182C164.864 10.4051 164.493 10.0059 163.995 9.72085C163.51 9.4215 162.947 9.27183 162.305 9.27183C161.365 9.27183 160.574 9.59256 159.932 10.234C159.305 10.8755 158.991 11.6737 158.991 12.6288C158.991 13.5838 159.305 14.3821 159.932 15.0235C160.574 15.665 161.365 15.9857 162.305 15.9857C162.933 15.9857 163.496 15.836 163.995 15.5367C164.508 15.2373 164.893 14.8382 165.149 14.3393L167.138 15.4725C166.682 16.3278 166.026 17.0049 165.171 17.5038C164.315 18.0027 163.367 18.2521 162.327 18.2521Z" fill="black"/>
<path d="M146.716 13.6123C146.887 14.4248 147.279 15.052 147.892 15.4939C148.505 15.9215 149.253 16.1354 150.137 16.1354C151.363 16.1354 152.282 15.6935 152.895 14.8097L154.798 15.9215C153.743 17.4753 152.183 18.2521 150.116 18.2521C148.377 18.2521 146.973 17.7247 145.903 16.6699C144.834 15.6008 144.3 14.2538 144.3 12.6288C144.3 11.0323 144.827 9.69946 145.882 8.63038C146.937 7.54704 148.291 7.00537 149.945 7.00537C151.513 7.00537 152.796 7.55417 153.793 8.65176C154.805 9.74935 155.311 11.0821 155.311 12.6501C155.311 12.8925 155.283 13.2132 155.226 13.6123H146.716ZM146.695 11.7307H152.981C152.824 10.8612 152.461 10.2055 151.89 9.76361C151.334 9.32172 150.679 9.10078 149.923 9.10078C149.068 9.10078 148.355 9.33598 147.785 9.80637C147.215 10.2768 146.851 10.9182 146.695 11.7307Z" fill="black"/>
<path d="M138.307 7.00537C139.533 7.00537 140.524 7.39737 141.279 8.18136C142.034 8.96536 142.412 10.0416 142.412 11.41V17.9742H140.103V11.6452C140.103 10.8469 139.889 10.234 139.462 9.80637C139.034 9.37874 138.449 9.16492 137.708 9.16492C136.896 9.16492 136.24 9.4215 135.741 9.93466C135.242 10.4336 134.993 11.2033 134.993 12.2439V17.9742H132.684V7.28333H134.993V8.65176C135.691 7.55417 136.796 7.00537 138.307 7.00537Z" fill="black"/>
<path d="M126.092 7.00537C127.318 7.00537 128.308 7.39737 129.064 8.18136C129.819 8.96536 130.197 10.0416 130.197 11.41V17.9742H127.888V11.6452C127.888 10.8469 127.674 10.234 127.246 9.80637C126.819 9.37874 126.234 9.16492 125.493 9.16492C124.68 9.16492 124.025 9.4215 123.526 9.93466C123.027 10.4336 122.777 11.2033 122.777 12.2439V17.9742H120.468V7.28333H122.777V8.65176C123.476 7.55417 124.581 7.00537 126.092 7.00537Z" fill="black"/>
<path d="M112.736 18.2521C111.168 18.2521 109.835 17.7105 108.737 16.6271C107.64 15.5438 107.091 14.211 107.091 12.6288C107.091 11.0465 107.64 9.71372 108.737 8.63038C109.835 7.54704 111.168 7.00537 112.736 7.00537C114.318 7.00537 115.651 7.54704 116.734 8.63038C117.832 9.71372 118.38 11.0465 118.38 12.6288C118.38 14.211 117.832 15.5438 116.734 16.6271C115.651 17.7105 114.318 18.2521 112.736 18.2521ZM110.362 15.0449C111.004 15.6863 111.795 16.0071 112.736 16.0071C113.676 16.0071 114.468 15.6863 115.109 15.0449C115.75 14.4034 116.071 13.5981 116.071 12.6288C116.071 11.6595 115.75 10.8541 115.109 10.2126C114.468 9.57117 113.676 9.25045 112.736 9.25045C111.795 9.25045 111.004 9.57117 110.362 10.2126C109.721 10.8541 109.4 11.6595 109.4 12.6288C109.4 13.5981 109.721 14.4034 110.362 15.0449Z" fill="black"/>
<path d="M99.3812 18.2521C97.129 18.2521 95.2617 17.5109 93.7792 16.0284C92.2968 14.5317 91.5555 12.6857 91.5555 10.4906C91.5555 8.29537 92.2968 6.45655 93.7792 4.97408C95.2617 3.47736 97.129 2.729 99.3812 2.729C100.735 2.729 101.983 3.04973 103.123 3.69118C104.278 4.33263 105.176 5.20215 105.817 6.29975L103.679 7.53988C103.28 6.79865 102.695 6.21422 101.926 5.78659C101.17 5.3447 100.322 5.12375 99.3812 5.12375C97.7847 5.12375 96.4876 5.62979 95.4898 6.64185C94.5062 7.65392 94.0144 8.93682 94.0144 10.4906C94.0144 12.0443 94.5062 13.3272 95.4898 14.3393C96.4876 15.3513 97.7847 15.8574 99.3812 15.8574C100.322 15.8574 101.177 15.6435 101.947 15.2159C102.717 14.774 103.294 14.1825 103.679 13.4412L105.817 14.66C105.19 15.7576 104.299 16.6342 103.144 17.2899C102.004 17.9314 100.75 18.2521 99.3812 18.2521Z" fill="black"/>
<path d="M82.906 7.2832H85.3649L81.2596 18.3162C80.2333 21.0815 78.4942 22.3929 76.0425 22.2504V20.0908C76.7694 20.1336 77.3539 19.9768 77.7958 19.6204C78.2376 19.2783 78.6011 18.7367 78.8862 17.9954L78.9931 17.7816L74.4602 7.2832H76.9832L80.1691 15.0448L82.906 7.2832Z" fill="black"/>
<path d="M73.3973 9.50693H70.746V14.6385C70.746 15.0804 70.8458 15.4011 71.0453 15.6007C71.2449 15.786 71.5371 15.8929 71.922 15.9214C72.3211 15.9357 72.8129 15.9286 73.3973 15.9001V17.9741C71.6298 18.1879 70.3611 18.0382 69.5914 17.5251C68.8216 16.9976 68.4368 16.0355 68.4368 14.6385V9.50693H66.4697V7.28323H68.4368V4.97401L70.746 4.28979V7.28323H73.3973V9.50693Z" fill="black"/>
<path d="M64.6221 5.25204C64.337 5.53713 63.9949 5.67968 63.5958 5.67968C63.1966 5.67968 62.8474 5.53713 62.5481 5.25204C62.263 4.9527 62.1204 4.60347 62.1204 4.20434C62.1204 3.80522 62.263 3.46311 62.5481 3.17802C62.8331 2.87868 63.1824 2.729 63.5958 2.729C64.0091 2.729 64.3584 2.87868 64.6435 3.17802C64.9286 3.46311 65.0711 3.80522 65.0711 4.20434C65.0711 4.60347 64.9214 4.9527 64.6221 5.25204ZM62.4411 17.9742V7.28331H64.7504V17.9742H62.4411Z" fill="black"/>
<path d="M55.8495 7.00537C57.0754 7.00537 58.0661 7.39737 58.8216 8.18136C59.5771 8.96536 59.9548 10.0416 59.9548 11.41V17.9742H57.6456V11.6452C57.6456 10.8469 57.4318 10.234 57.0041 9.80637C56.5765 9.37874 55.9921 9.16492 55.2508 9.16492C54.4383 9.16492 53.7826 9.4215 53.2837 9.93466C52.7848 10.4336 52.5354 11.2033 52.5354 12.2439V17.9742H50.2261V7.28333H52.5354V8.65176C53.2338 7.55417 54.3385 7.00537 55.8495 7.00537Z" fill="black"/>
<path d="M45.9655 16.841C44.9107 17.7818 43.5494 18.2522 41.8816 18.2522C40.2138 18.2522 38.8525 17.7818 37.7977 16.841C36.7429 15.886 36.2155 14.6102 36.2155 13.0137V3.00708H38.6743V12.864C38.6743 13.7763 38.9381 14.5033 39.4655 15.045C40.0071 15.5866 40.8125 15.8575 41.8816 15.8575C42.9507 15.8575 43.7489 15.5866 44.2764 15.045C44.818 14.5033 45.0889 13.7763 45.0889 12.864V3.00708H47.5477V13.0137C47.5477 14.6102 47.0203 15.886 45.9655 16.841Z" fill="black"/>
</svg>
